<?xml version="1.0" encoding="utf-8"?>
<!-- Generator: Adobe Illustrator 16.0.0, SVG Export Plug-In . SVG Version: 6.00 Build 0)  -->
<!DOCTYPE svg PUBLIC "-//W3C//DTD SVG 1.1//EN" "http://www.w3.org/Graphics/SVG/1.1/DTD/svg11.dtd">
<svg version="1.1" id="Layer_1" xmlns="http://www.w3.org/2000/svg" xmlns:xlink="http://www.w3.org/1999/xlink" x="0px" y="0px" viewBox="0 0 w h" enable-background="new 0 0 24.359 24.5" xml:space="preserve">
	 <style type="text/css">
		 <![CDATA[
			 g path {
			-moz-transition: fill 250ms ease-in-out 0ms;
			-webkit-transition: fill 250ms ease-in-out 0ms;
			-o-transition: fill 250ms ease-in-out 0ms;
			transition: fill 250ms ease-in-out 0ms;
		}
				
		g:hover path {
			fill: #5b82ab;
		}
		g:hover circle{
			fill:#fff;
		}]]>
	</style>
<g>
	<a xlink:href="#" >
		<circle fill="#fff" cx="12.18" cy="12.251" r="7.792"/>
		<path fill="#da5c4f" d="M12.181,0.569c-6.453,0-11.683,5.229-11.683,11.681s5.229,11.684,11.683,11.684
			c6.451,0,11.681-5.23,11.681-11.684C23.862,5.798,18.632,0.569,12.181,0.569z M18.798,14.371c-0.012,2.17-1.779,3.947-3.953,3.947
			h-4.54c-2.174,0-3.95-1.777-3.95-3.947V9.759c0-2.174,1.776-3.955,3.95-3.955h2.764c1.021,0.121,2.505,0.995,3.054,2.158
			c0.149,0.324,0.229,0.376,0.354,1.342c0.068,0.498,0.103,0.866,0.324,1.069c0.313,0.285,1.475,0.095,1.705,0.272l0.176,0.139
			l0.105,0.217l0.034,0.175L18.798,14.371z"/>
		<path fill="#AEAEAF" d="M14.808,13.561h-4.453c-0.418,0-0.756,0.336-0.756,0.752c0,0.407,0.338,0.754,0.756,0.754h4.453
			c0.416,0,0.752-0.347,0.752-0.754C15.56,13.896,15.224,13.561,14.808,13.561z"/>
		<path fill="#AEAEAF" d="M10.355,10.546h2.191c0.418,0,0.757-0.345,0.757-0.758s-0.339-0.754-0.757-0.754h-2.191
			c-0.418,0-0.756,0.341-0.756,0.754C9.599,10.203,9.937,10.546,10.355,10.546z"/>
	</a>
</g>
</svg>
