<?xml version="1.0" encoding="utf-8"?>
<!-- Generator: Adobe Illustrator 16.0.0, SVG Export Plug-In . SVG Version: 6.00 Build 0)  -->
<!DOCTYPE svg PUBLIC "-//W3C//DTD SVG 1.1//EN" "http://www.w3.org/Graphics/SVG/1.1/DTD/svg11.dtd">
<svg version="1.1" id="Layer_1" xmlns="http://www.w3.org/2000/svg" xmlns:xlink="http://www.w3.org/1999/xlink" x="0px" y="0px" viewBox="0 0 w h" enable-background="new 0 0 24.359 24.5" xml:space="preserve">
	 <style type="text/css">
		 <![CDATA[
			 g path {
			-moz-transition: fill 250ms ease-in-out 0ms;
			-webkit-transition: fill 250ms ease-in-out 0ms;
			-o-transition: fill 250ms ease-in-out 0ms;
			transition: fill 250ms ease-in-out 0ms;
		}
				
		g:hover path {
			fill: #5b82ab;
		}
		g:hover circle{
			fill:#fff;
		}]]>
	</style>	 

<g>
	<a xlink:href="#">
		<circle fill="#fff" cx="12.292" cy="12.334" r="9.17"/>
		<path fill="#da5c4f" d="M9.995,11.381c0.298,0,0.552-0.118,0.748-0.342c0.308-0.348,0.44-0.923,0.36-1.532
			c-0.143-1.09-0.92-1.995-1.733-2.021H9.338c-0.287,0-0.543,0.118-0.738,0.342c-0.305,0.346-0.431,0.892-0.352,1.5
			c0.142,1.088,0.937,2.029,1.732,2.053H9.995z"/>
		<path fill="#da5c4f" d="M10.882,14.666c-0.081-0.055-0.164-0.111-0.25-0.171c-0.25-0.076-0.516-0.116-0.787-0.119H9.81
			c-1.25,0-2.35,0.759-2.35,1.624c0,0.938,0.939,1.677,2.142,1.677c1.583,0,2.387-0.546,2.387-1.622c0-0.103-0.013-0.209-0.036-0.313
			C11.845,15.32,11.46,15.061,10.882,14.666z"/>
		<path fill="#da5c4f" d="M12.181,0.51C5.694,0.51,0.44,5.764,0.44,12.25c0,6.486,5.255,11.74,11.74,11.74
			c6.484,0,11.739-5.256,11.739-11.74C23.919,5.765,18.664,0.51,12.181,0.51z M11.112,18.639c-0.469,0.135-0.973,0.202-1.504,0.202
			c-0.59,0-1.157-0.067-1.688-0.2c-1.024-0.26-1.782-0.75-2.136-1.382c-0.152-0.272-0.23-0.563-0.23-0.864
			c0-0.313,0.076-0.625,0.223-0.938c0.563-1.196,2.041-2,3.683-2c0.016,0,0.031,0,0.047,0c-0.133-0.235-0.198-0.479-0.198-0.733
			c0-0.128,0.018-0.257,0.05-0.388c-1.72-0.041-3.006-1.3-3.006-2.96c0-1.173,0.938-2.314,2.276-2.777
			c0.401-0.139,0.81-0.209,1.213-0.209h3.677c0.127,0,0.236,0.082,0.275,0.2c0.041,0.122-0.005,0.252-0.106,0.325l-0.82,0.595
			c-0.05,0.035-0.11,0.055-0.173,0.055h-0.293c0.383,0.455,0.604,1.104,0.604,1.834c0,0.808-0.408,1.569-1.149,2.149
			c-0.571,0.445-0.597,0.567-0.597,0.824c0.008,0.14,0.408,0.596,0.847,0.908c1.027,0.724,1.409,1.436,1.409,2.625
			C13.513,17.141,12.569,18.215,11.112,18.639z M19.418,12.33c0,0.159-0.131,0.288-0.289,0.288h-2.09v2.091
			c0,0.16-0.13,0.289-0.29,0.289h-0.595c-0.16,0-0.291-0.129-0.291-0.289v-2.091h-2.09c-0.157,0-0.288-0.129-0.288-0.288v-0.595
			c0-0.159,0.131-0.29,0.288-0.29h2.09V9.354c0-0.16,0.131-0.289,0.291-0.289h0.595c0.16,0,0.29,0.129,0.29,0.289v2.091h2.089
			c0.159,0,0.29,0.131,0.29,0.29V12.33L19.418,12.33z"/>
		</a>
</g>
</svg>
