<?xml version="1.0" encoding="utf-8"?>
<!-- Generator: Adobe Illustrator 16.0.0, SVG Export Plug-In . SVG Version: 6.00 Build 0)  -->
<!DOCTYPE svg PUBLIC "-//W3C//DTD SVG 1.1//EN" "http://www.w3.org/Graphics/SVG/1.1/DTD/svg11.dtd">
<svg version="1.1" id="Layer_1" xmlns="http://www.w3.org/2000/svg" xmlns:xlink="http://www.w3.org/1999/xlink" x="0px" y="0px" viewBox="0 0 w h" enable-background="new 0 0 24.359 24.5" xml:space="preserve">
	 <style type="text/css">
	 <![CDATA[
		 g path {
		-moz-transition: fill 250ms ease-in-out 0ms;
		-webkit-transition: fill 250ms ease-in-out 0ms;
		-o-transition: fill 250ms ease-in-out 0ms;
		transition: fill 250ms ease-in-out 0ms;
	}
			
	g:hover path {
			fill: #5b82ab;
		}
		g:hover circle{
			fill:#fff;
		}]]>
	</style>
	 <g>
		<a xlink:href="#">
			<circle fill="#fff" cx="12.548" cy="12.117" r="9.493"/>
			<path fill="#da5c4f" d="M12.181,0.468c-6.508,0-11.782,5.274-11.782,11.781c0,6.509,5.273,11.782,11.782,11.782
				c6.508,0,11.781-5.273,11.781-11.782C23.962,5.743,18.688,0.468,12.181,0.468z M16.288,18.768c-0.635,0.297-1.207,0.508-1.723,0.629
				c-0.515,0.119-1.068,0.18-1.667,0.18c-0.678,0-1.077-0.084-1.601-0.256c-0.521-0.172-0.965-0.415-1.332-0.731
				c-0.368-0.317-0.624-0.655-0.767-1.012c-0.142-0.356-0.214-0.874-0.214-1.554v-5.203H6.973V8.72C7.555,8.53,8.232,8.259,8.645,7.905
				C9.063,7.551,9.396,7.126,9.647,6.63c0.251-0.494,0.425-1.124,0.521-1.891h2.109v3.433h3.431v2.648h-3.431v3.805
				c0,0.859-0.012,1.355,0.078,1.6c0.092,0.243,0.318,0.494,0.566,0.642c0.328,0.194,0.702,0.294,1.126,0.294
				c0.751,0,1.498-0.243,2.241-0.73V18.768L16.288,18.768z"/>
		</a>
	</g>
</svg>
