<?xml version="1.0" encoding="utf-8"?>
<!-- Generator: Adobe Illustrator 16.0.0, SVG Export Plug-In . SVG Version: 6.00 Build 0)  -->
<!DOCTYPE svg PUBLIC "-//W3C//DTD SVG 1.1//EN" "http://www.w3.org/Graphics/SVG/1.1/DTD/svg11.dtd">
<svg version="1.1" id="Layer_1" xmlns="http://www.w3.org/2000/svg" xmlns:xlink="http://www.w3.org/1999/xlink" x="0px" y="0px" viewBox="0 0 w h" enable-background="new 0 0 24.359 24.5" xml:space="preserve">
	 <style type="text/css">
		 <![CDATA[
			 g path {
			-moz-transition: fill 250ms ease-in-out 0ms;
			-webkit-transition: fill 250ms ease-in-out 0ms;
			-o-transition: fill 250ms ease-in-out 0ms;
			transition: fill 250ms ease-in-out 0ms;
		}
		g:hover path {
			fill: #5b82ab;
		}
		g:hover circle{
			fill:#fff;
		}]]>
	</style>
<g>
	<a xlink:href="#">
		<circle fill="#fff" cx="12.089" cy="12.404" r="9.909"/>
		<path fill="#da5c4f" d="M12.181,0.394c-6.549,0-11.855,5.31-11.855,11.857s5.308,11.854,11.855,11.854s11.855-5.309,11.855-11.854
			C24.036,5.704,18.729,0.394,12.181,0.394z M18.153,9.861c0.007,0.127,0.009,0.256,0.009,0.386c0,3.948-3.007,8.501-8.501,8.501
			c-1.688,0-3.259-0.494-4.58-1.342c0.232,0.027,0.472,0.041,0.712,0.041c1.4,0,2.688-0.479,3.712-1.278
			c-1.309-0.024-2.411-0.89-2.791-2.076c0.183,0.036,0.369,0.054,0.562,0.054c0.272,0,0.537-0.035,0.788-0.104
			c-1.368-0.274-2.396-1.483-2.396-2.929c0-0.014,0-0.026,0-0.039c0.401,0.224,0.862,0.358,1.354,0.374
			c-0.803-0.536-1.329-1.45-1.329-2.487c0-0.547,0.147-1.062,0.403-1.502c1.475,1.808,3.676,2.997,6.16,3.122
			c-0.051-0.22-0.078-0.447-0.078-0.682c0-1.649,1.338-2.987,2.988-2.987c0.858,0,1.636,0.363,2.181,0.943
			c0.681-0.135,1.32-0.384,1.897-0.725c-0.225,0.698-0.696,1.283-1.314,1.651c0.605-0.071,1.181-0.231,1.717-0.47
			C19.243,8.913,18.737,9.439,18.153,9.861z"/>
	</a>
</g>
</svg>
